PathFileType	4	(X/Y/Z)	Patient4_TMGait_0pt3_02_left_07.trc.trc
DataRate	CameraRate	NumFrames	NumMarkers	Units	OrigDataRate	OrigDataStartFrame	OrigNumFrames
50.179211469534	50.179211469534	6	33	mm	50.179211469534	89	       141
Frame#	Time	Sacral			L.Shoulder			Chest			R.Shoulder			Neck			R.ASIS			L.ASIS			R.Thigh.Superior			R.Thigh.Lateral			R.Thigh.Inferior			R.Patella			L.Thigh.Superior			L.Thigh.Lateral			L.Thigh.Inferior			L.Patella			L.Shank.Superior			L.Shank.Lateral			L.Shank.Inferior			R.Shank.Superior			R.Shank.Lateral			R.Shank.Inferior			R.Heel			R.Midfoot.Superior			R.Midfoot.Lateral			R.Toe			L.Heel			L.Midfoot.Lateral			L.Midfoot.Superior			L.Toe			L.Elbow			L.Wrist			R.Elbow			R.Wrist			
		X1	Y1	Z1	X2	Y2	Z2	X3	Y3	Z3	X4	Y4	Z4	X5	Y5	Z5	X6	Y6	Z6	X7	Y7	Z7	X8	Y8	Z8	X9	Y9	Z9	X10	Y10	Z10	X11	Y11	Z11	X12	Y12	Z12	X13	Y13	Z13	X14	Y14	Z14	X15	Y15	Z15	X16	Y16	Z16	X17	Y17	Z17	X18	Y18	Z18	X19	Y19	Z19	X20	Y20	Z20	X21	Y21	Z21	X22	Y22	Z22	X23	Y23	Z23	X24	Y24	Z24	X25	Y25	Z25	X26	Y26	Z26	X27	Y27	Z27	X28	Y28	Z28	X29	Y29	Z29	X30	Y30	Z30	X31	Y31	Z31	X32	Y32	Z32	X33	Y33	Z33	

89	15.253714285714	708.625301734585	1005.990189238327	511.763526596172	926.953166310689	1429.806040060083	356.605835578126	996.524312747592	1358.070029503184	533.110626588839	886.970998415812	1435.721839197031	689.764219066792	882.424415142451	1492.140386324505	510.862541467311	924.224158221354	940.063330341341	654.671861518507	938.216288446124	953.961313765665	380.616917797039	983.277408508895	749.346892833455	621.737950364801	912.571364309810	631.742272132263	678.299603246873	997.644408207147	587.745193669086	600.090628994717	1008.999437199944	498.728386103206	607.799013634312	929.629808932653	723.310505674246	401.742049019482	812.178985983071	631.676912753177	333.106356675329	871.127664889011	534.164646078948	393.724099390289	852.273975010039	462.425354975578	397.870528778830	801.066304811335	404.221593250229	387.809836460661	677.835301065766	326.562846031462	334.598628248257	692.854884462800	199.753303924711	397.450327739082	981.959653715291	408.575525115624	612.507466310580	912.881104730341	303.234607065365	673.604133483940	957.150399116181	209.013032012371	611.286791179786	825.052820915059	44.282692202717	584.580759089439	997.466875081103	97.800700060909	617.156702434054	909.720075356799	37.652979035785	657.054031853245	1117.799385318851	42.773358624108	642.795905501081	525.509682512969	74.354916611899	432.090569752553	600.752495414692	53.229836021279	356.814257508685	693.092565980702	101.179678609727	383.215213010435	809.208115693148	36.871460661146	363.965057958603	1038.493578196962	1123.468295322790	200.751413891216	1297.787980877928	1111.683464594465	209.567940590249	733.473775997832	1122.142454277763	781.089100685265	710.204143383839	862.985560497394	808.137696139466	
90	15.273642857143	710.013097087491	1007.245679220539	517.802499960532	927.898991228341	1430.164885568668	360.047133238578	998.996863396491	1358.496761432996	536.016366608357	891.079038602564	1436.652792305725	693.444885468146	884.820123484180	1492.969094985431	514.339735860201	926.495213446578	940.388707066340	658.901268293320	938.271790186109	954.620477635058	384.765774390763	983.454487252410	748.660221190553	625.735183610925	911.239613201793	631.635073292235	681.720712270011	995.733361362748	587.024898754186	603.350804463303	1005.974996868793	497.998714161475	610.491679782198	931.240035901158	724.372850673617	404.776234745560	814.618143007691	632.137866159452	336.161845775890	875.378731185621	534.435444297218	395.613065584920	856.851117578424	461.610598080540	398.609335667714	803.594465959724	404.573481003632	388.847450748615	678.191233164176	330.071424812932	336.166949607671	691.560727300582	202.257903537205	397.452892473548	978.429707764367	408.083958080885	614.622281858075	908.648610417964	302.843496828820	674.979412427839	952.302080285862	208.711973639925	612.084235421383	819.319327298336	44.319429145850	584.560389525521	991.704113799974	97.850228580792	617.349310204212	903.943858872457	37.674102028936	657.026103321396	1112.031513660043	42.540451962555	643.029862128904	521.583803441337	80.807972579345	431.809251864822	595.999574920572	56.897875682605	356.650725681192	689.800249562071	102.366945805943	382.527307123117	803.361763677346	36.457368460650	364.008804534378	1034.216797120117	1120.127535607241	206.165453896685	1293.483178360485	1101.487249039905	213.855630161404	739.733441648154	1122.639017391729	788.533388353460	718.276641576809	863.541834681430	817.247027171352	
91	15.293571428571	711.169686627935	1008.268994427282	523.726854216956	928.312440035074	1430.414681833950	363.282318227481	1001.040163461749	1358.882165072952	538.677310062480	894.769146539446	1437.471613270304	696.902686133221	886.777101897156	1493.684606991191	517.617790369863	928.598930857544	940.617913934108	662.980847092467	938.103074478186	955.218393992828	388.814847340871	983.518899952264	747.889294825057	629.587809710591	909.822550927437	631.452897366901	685.027303929051	993.722655162322	586.244202952171	606.493717604049	1002.807385450599	497.227703488386	613.093254741212	933.458125851940	725.492694693346	407.809819921674	818.213106514014	632.225287100147	339.198950527939	881.062514153262	534.590196936023	397.696093519700	862.949640732810	460.534097565095	399.504474275323	807.522889338202	404.659420980732	390.066722872580	679.940788578197	333.742556119953	337.758039959321	691.079520019036	205.071128944605	397.606026858902	974.768364792721	407.544878783651	616.698025467025	904.280428721455	302.415515457586	676.330079794920	947.369898408319	208.383889202237	612.887328071203	813.522232004951	44.345435088213	584.533603277215	985.896343980771	97.853141459395	617.517361988186	898.099518398258	37.682396856857	657.004470494633	1106.194894835557	42.310159308444	643.247875711714	518.209334507871	88.482767326394	431.555809995951	591.571386051793	61.557627510455	356.509991602149	686.897618424408	103.999477617160	381.939136038174	797.433854515792	35.888109198118	364.075355929620	1028.854807965024	1116.426070262005	211.631288183212	1287.764801434875	1089.335466518030	218.250577776224	746.553677745242	1122.579422919544	795.933399184637	727.677896811392	863.516725039473	826.522032076214	
92	15.313500000000	712.067032631626	1009.031027877821	529.519834506358	928.157114713468	1430.536626245439	366.298942045378	1002.607876232084	1359.205752706832	541.079965596577	897.992200201949	1438.144957871365	700.129599302099	888.246992034686	1494.255627282221	520.692021709414	930.538424952556	940.753313569090	666.869315564454	937.683888139514	955.724648320606	392.729814391260	983.523866479269	747.059370856747	633.213672334371	908.437164839484	631.195911156874	688.170230668184	991.708834577402	585.418074469905	609.431907999582	999.630594862042	496.405749248530	615.518783321139	936.336212735465	726.688108091915	410.865077500887	823.076228678543	631.944514714703	342.233434150510	888.281071266844	534.674435005922	400.035061837802	870.687522945938	459.255748594130	400.651364071648	812.989521219859	404.489315784266	391.532952624802	683.256947386438	337.626942232947	339.400352953253	691.511487130842	208.278090142649	397.950713460281	971.077429591747	406.947619710599	618.664611981530	899.882132949302	301.958902416605	677.626438503698	942.396441051457	208.019151820948	613.654607457803	807.655052781357	44.357531230100	584.508688765840	980.040644628994	97.814316608492	617.654421419437	892.184752720631	37.679403621668	656.995593921025	1100.290414159859	42.086726929481	643.442781048482	515.539876292109	97.577265234874	431.377791791491	587.589759083460	67.424432259050	356.427337823319	684.463538439034	106.230920515288	381.500162881900	791.447403149301	35.160538864764	364.159796246389	1022.441401332397	1112.413161700752	217.146022939897	1280.436545802631	1075.143835733884	222.772316518867	753.985513557053	1121.903741362479	803.198146312386	738.631528409450	862.858529360053	835.838688110070	
93	15.333428571429	712.680772401044	1009.507644324689	535.170402103241	927.410324842828	1430.508179451602	369.080731355325	1003.668867322746	1359.440851710927	543.206492575034	900.723679631624	1438.641410210898	703.114316676797	889.198863242586	1494.651482036338	523.553319009635	932.314743600697	940.797748059198	670.532907216837	936.989068762262	956.105980235989	396.477189041365	983.518350404964	746.191876539766	636.549490376205	907.186617359486	630.855615121750	691.104491827702	989.783566036017	584.557148075873	612.089458955403	996.577150007804	495.518919194887	617.690626119229	939.890796147097	727.993283406227	413.981565076495	829.264708251217	631.338073675015	345.289426823277	897.062482403718	534.765147647690	402.693045346488	880.112509890996	457.873567700739	402.145821209925	820.070341576052	404.107501865132	393.302886880208	688.249453662938	341.778908087833	341.139179116003	692.944623366665	211.958687938076	398.529321026555	967.456584934863	406.279017885585	620.455993645497	895.554817619289	301.478195626604	678.836708828818	937.425333787206	207.608960851265	614.346781270670	801.721259121504	44.352357596404	584.492657166446	974.139843608579	97.744213104462	617.758900994774	886.206784989611	37.666423498408	657.004649985601	1094.325820294969	41.881685685628	643.610464443855	513.743600115276	108.207764508299	431.342277928654	584.203824809126	74.659156117295	356.450036269127	682.597815205882	109.201099627706	381.260424631029	785.472771751699	34.306307542479	364.253669445824	1015.052984455919	1108.140779335463	222.705303819704	1271.290201630802	1058.878845097454	227.441164977017	762.064952257794	1120.588867528458	810.239997353298	751.334793209649	861.569968747408	845.057187042723	
94	15.353357142857	712.993877707410	1009.678607752240	540.671769969605	926.065147389773	1430.301936232090	371.608922870137	1004.208846506876	1359.555382759236	545.036697123421	902.962660178805	1438.932383170585	705.842677677073	889.621167153999	1494.842556664492	526.188111262403	933.926359173924	940.751331179088	673.946856200077	935.998489696110	956.328610141538	400.025116423671	983.547430107195	745.302432623163	639.552474242244	906.159314500313	630.414593551489	693.789715188341	988.035337832853	583.666772883114	614.406140079519	993.776288759877	494.549126744296	619.543590159941	944.092709340902	729.453785043348	417.210273555487	836.763030309283	630.483838361234	348.396483746986	907.344139231440	534.965502928228	405.727079592326	891.184745729909	456.516971441885	404.072849321013	828.763062640016	403.591829220185	395.418155651818	694.944790417015	346.243557173409	343.035105858536	695.450908355808	216.168741439773	399.384106571503	964.002900122807	405.522725345869	622.014460711585	891.391938128181	300.974049556904	679.929578657258	932.499782749098	207.144582556097	614.929569771606	795.730593473489	44.328198767821	584.490644912953	968.200871536937	97.655287335020	617.832763256740	880.178290657200	37.644753205884	657.034696489294	1088.312769985124	41.707958725349	643.749246440959	512.992458985254	120.359098135211	431.533678450358	581.588087357847	83.324722117731	356.635665771633	681.424108013030	113.008615073291	381.267390295012	779.647458167492	33.399145850952	364.343464250607	1006.798821797218	1103.655520340765	228.304531783385	1260.107855858780	1040.578955116055	232.274753330514	770.812646136791	1118.647084551668	816.977579201520	765.954441829257	859.712718951783	854.024485336952	
